#!OML:ASF F:\VICON\USERDATA\INSTALL\rory3\rory3.ASF
:FULLY-SPECIFIED
:DEGREES
838
root -1.93337 18.5256 0.329543 1.89981 9.52653 -1.58788
lowerback 11.8224 1.45066 2.53726
upperback 1.87452 2.25858 0.198163
thorax -4.57037 1.07846 -1.57197
lowerneck -26.2444 -5.71419 -12.7916
upperneck 19.2999 -5.79406 10.9262
head 11.3101 -2.21832 5.16324
rclavicle -1.77043e-014 1.73937e-014
rhumerus -48.7 6.82119 -83.4551
rradius 97.3729
rwrist -4.89865
rhand -20.1637 19.3284
rfingers 7.12502
rthumb 6.1818 -10.5614
lclavicle -1.77043e-014 1.73937e-014
lhumerus -37.0383 1.42531 85.0359
lradius 111.273
lwrist 23.5345
lhand -7.4054 7.0609
lfingers 7.12502
lthumb 18.4809 36.203
rfemur -10.1228 -1.62892 26.5645
rtibia 32.824
rfoot -1.93783 -2.10447
rtoes 10.0225
lfemur -48.0531 6.95213 -17.6674
ltibia 79.4442
lfoot 17.3193 -20.8871
ltoes -11.9788
839
root -1.90062 18.6068 0.345815 2.03682 8.81665 -1.33897
lowerback 11.5647 1.45891 2.42076
upperback 1.88839 2.24649 0.191776
thorax -4.41807 1.07674 -1.50239
lowerneck -26.3813 -5.62995 -12.5573
upperneck 19.3413 -5.727 10.8265
head 11.3296 -2.17886 5.09919
rclavicle -8.1452e-014 6.36111e-015
rhumerus -48.7438 7.07839 -83.4666
rradius 98.3519
rwrist -4.35077
rhand -20.1228 19.526
rfingers 7.12502
rthumb 6.22129 -10.3627
lclavicle -8.1452e-014 6.36111e-015
lhumerus -37.4814 1.58128 85.2603
lradius 107.628
lwrist 24.0757
lhand -8.00521 6.92049
lfingers 7.12502
lthumb 17.9038 36.1164
rfemur -11.1922 -1.97018 25.7876
rtibia 34.2067
rfoot 0.659234 -2.2649
rtoes 12.2361
lfemur -45.6629 6.70505 -18.0976
ltibia 75.8557
lfoot 17.1981 -21.1412
ltoes -12.9129
840
root -1.86901 18.6859 0.357219 2.16819 7.8005 -1.13407
lowerback 11.2411 1.56767 2.28321
upperback 2.01436 2.36537 0.255657
thorax -4.11081 1.1434 -1.36212
lowerneck -26.6746 -5.56449 -12.5433
upperneck 19.382 -5.61756 10.871
head 11.384 -2.11514 5.13611
rclavicle -5.43428e-014 -1.09332e-014
rhumerus -48.5512 7.43995 -83.3599
rradius 99.2985
rwrist -3.96757
rhand -20.1217 19.5728
rfingers 7.12502
rthumb 6.22228 -10.3158
lclavicle -5.43428e-014 -1.09332e-014
lhumerus -37.6214 1.78405 85.5742
lradius 103.944
lwrist 24.7568
lhand -8.36689 6.98755
lfingers 7.12502
lthumb 17.5558 36.2149
rfemur -12.4931 -1.85481 25.0671
rtibia 35.8175
rfoot 3.31731 -2.73114
rtoes 13.8814
lfemur -43.3625 6.60948 -18.4166
ltibia 72.2204
lfoot 17.3551 -21.1462
ltoes -13.5321
841
root -1.83979 18.7528 0.36662 2.28084 6.64609 -0.887485
lowerback 11.5645 1.64856 2.19614
upperback 1.67337 2.46864 0.128925
thorax -4.64065 1.1834 -1.47937
lowerneck -26.4852 -5.37086 -12.1884
upperneck 19.5933 -5.51933 10.8406
head 11.4039 -2.0532 5.08953
rclavicle -2.42517e-014 -8.34896e-015
rhumerus -48.9993 7.8133 -83.6894
rradius 100.33
rwrist -3.54226
rhand -20.0561 19.567
rfingers 7.12502
rthumb 6.28565 -10.3197
lclavicle -2.42517e-014 -8.34896e-015
lhumerus -38.5171 1.81196 85.4027
lradius 100.577
lwrist 25.5414
lhand -8.25402 7.50183
lfingers 7.12502
lthumb 17.6644 36.7194
rfemur -13.917 -1.55035 24.3124
rtibia 37.6239
rfoot 5.72839 -3.27352
rtoes 13.7216
lfemur -41.0424 6.53749 -18.7488
ltibia 68.5789
lfoot 17.7228 -20.6291
ltoes -13.3429
842
root -1.81196 18.8025 0.376143 2.34147 5.48714 -0.46852
lowerback 11.5244 1.80299 1.73371
upperback 1.62572 2.61512 0.133382
thorax -4.68366 1.26219 -1.23665
lowerneck -26.2892 -5.33639 -12.113
upperneck 19.5695 -5.54264 10.9111
head 11.3631 -2.05408 5.09874
rclavicle -2.28105e-014 1.78906e-014
rhumerus -48.9581 8.17874 -83.6023
rradius 101.329
rwrist -3.02268
rhand -19.9665 19.7202
rfingers 7.12502
rthumb 6.37213 -10.1639
lclavicle -2.28105e-014 1.78906e-014
lhumerus -39.1126 1.81261 85.4794
lradius 97.4234
lwrist 26.4197
lhand -7.93676 7.78736
lfingers 7.12502
lthumb 17.9697 36.9772
rfemur -15.4126 -1.21 23.3913
rtibia 39.7079
rfoot 7.74048 -3.75186
rtoes 13.1399
lfemur -38.5999 6.37985 -19.2987
ltibia 64.9552
lfoot 17.9634 -19.8799
ltoes -13.1958
843
root -1.78454 18.846 0.394203 2.4703 4.42742 0.0848377
lowerback 11.1511 1.87241 0.966746
upperback 1.66866 2.61477 0.291422
thorax -4.47381 1.27828 -0.62648
lowerneck -26.4849 -5.16423 -12.1614
upperneck 19.8363 -5.26505 10.8663
head 11.4609 -1.9348 5.14964
rclavicle -8.54774e-015 -1.55052e-014
rhumerus -48.7145 8.93354 -83.3268
rradius 102.25
rwrist -2.79851
rhand -19.9955 19.8141
rfingers 7.12502
rthumb 6.34412 -10.0709
lclavicle -8.54774e-015 -1.55052e-014
lhumerus -39.6478 2.05088 85.7686
lradius 94.1502
lwrist 26.6545
lhand -8.32726 7.71837
lfingers 7.12502
lthumb 17.5939 36.9423
rfemur -17.0989 -1.10305 22.3477
rtibia 42.1453
rfoot 9.14097 -3.50192
rtoes 11.618
lfemur -36.2332 6.03535 -20.0212
ltibia 61.4343
lfoot 17.9433 -19.2367
ltoes -13.9594
844
root -1.76074 18.8724 0.410572 2.46211 3.59519 0.725211
lowerback 10.9461 1.87725 0.177211
upperback 1.69442 2.52921 0.363768
thorax -4.3722 1.24949 -0.087822
lowerneck -26.2584 -4.96975 -12.0965
upperneck 19.7531 -5.04307 10.88
head 11.3568 -1.83335 5.18019
rclavicle -1.14301e-014 1.47101e-014
rhumerus -48.5188 9.58726 -83.1597
rradius 103.231
rwrist -2.9533
rhand -20.1656 19.769
rfingers 7.12502
rthumb 6.17995 -10.1208
lclavicle -1.14301e-014 1.47101e-014
lhumerus -40.1166 2.04861 86.0026
lradius 90.964
lwrist 26.49
lhand -9.0332 8.34545
lfingers 7.12502
lthumb 16.9145 37.6289
rfemur -18.771 -1.25999 21.2614
rtibia 44.9623
rfoot 9.69565 -2.70955
rtoes 10.1253
lfemur -33.8035 5.43597 -20.8196
ltibia 58.0466
lfoot 18.0503 -18.5413
ltoes -15.1806
845
root -1.74095 18.88 0.419134 2.4087 2.81427 1.24048
lowerback 10.7726 1.76423 -0.451662
upperback 1.7334 2.30834 0.413345
thorax -4.26227 1.15029 0.355157
lowerneck -26.1939 -4.8037 -11.9921
upperneck 19.8362 -4.87362 10.9113
head 11.3514 -1.74696 5.20772
rclavicle -1.8487e-014 -1.27222e-014
rhumerus -48.2345 10.3906 -83.2111
rradius 104.227
rwrist -3.04004
rhand -20.1758 19.8157
rfingers 7.12502
rthumb 6.17013 -10.0745
lclavicle -1.8487e-014 -1.27222e-014
lhumerus -40.6123 2.10476 85.9825
lradius 87.9346
lwrist 26.326
lhand -9.50701 8.43845
lfingers 7.12502
lthumb 16.4583 37.7603
rfemur -20.5664 -1.37856 20.3597
rtibia 48.1247
rfoot 9.65811 -2.34639
rtoes 8.99698
lfemur -31.5207 4.80404 -21.5112
ltibia 54.8531
lfoot 18.4296 -17.8413
ltoes -16.0538
846
root -1.72171 18.8751 0.425915 2.37546 1.88569 1.79494
lowerback 10.6556 1.64349 -0.910937
upperback 1.75093 2.08911 0.262686
thorax -4.1872 1.0474 0.491696
lowerneck -26.5657 -4.72193 -11.6706
upperneck 20.2404 -4.88437 10.9529
head 11.5661 -1.71333 5.18488
rclavicle -2.33572e-015 -7.55382e-015
rhumerus -47.9224 11.0212 -83.5467
rradius 105.342
rwrist -2.99783
rhand -20.2667 19.8276
rfingers 7.12502
rthumb 6.08234 -10.0651
lclavicle -2.33572e-015 -7.55382e-015
lhumerus -41.0212 2.01451 85.6987
lradius 85.0868
lwrist 26.5049
lhand -9.74961 8.66294
lfingers 7.12502
lthumb 16.2248 38.004
rfemur -22.503 -1.32901 19.4312
rtibia 51.5633
rfoot 8.91069 -2.81233
rtoes 7.78014
lfemur -29.3281 4.22573 -22.2623
ltibia 51.8268
lfoot 18.8495 -17.19
ltoes -16.5018
847
root -1.70068 18.8608 0.437308 2.40154 0.929932 2.31477
lowerback 10.5176 1.52634 -1.34656
upperback 1.72529 1.88 0.134619
thorax -4.14336 0.949246 0.636286
lowerneck -26.9677 -4.56329 -11.2728
upperneck 20.6685 -4.78612 10.871
head 11.7763 -1.63881 5.12225
rclavicle -1.0138e-014 7.95139e-015
rhumerus -47.5794 11.4455 -83.8225
rradius 106.548
rwrist -2.71792
rhand -19.8443 19.9888
rfingers 7.12502
rthumb 6.49008 -9.89173
lclavicle -1.0138e-014 7.95139e-015
lhumerus -41.5427 1.758 85.4485
lradius 82.4951
lwrist 26.6733
lhand -10.1764 9.41108
lfingers 7.12502
lthumb 15.8138 38.7852
rfemur -24.5242 -1.29507 18.5609
rtibia 55.1694
rfoot 7.18507 -3.14568
rtoes 4.61121
lfemur -27.2772 3.71557 -23.0033
ltibia 48.9951
lfoot 19.2386 -16.6455
ltoes -17.3863
848
root -1.67746 18.8368 0.441623 2.31026 0.168778 2.85732
lowerback 10.535 1.37354 -1.88168
upperback 1.71625 1.61634 0.131147
thorax -4.17104 0.826414 0.97016
lowerneck -26.9521 -4.37398 -11.1227
upperneck 20.7715 -4.58554 10.8532
head 11.7817 -1.53977 5.13028
rclavicle 2.78299e-015 3.97569e-016
rhumerus -47.0416 11.8925 -83.7965
rradius 107.515
rwrist -2.24861
rhand -19.4803 20.3808
rfingers 7.12502
rthumb 6.84148 -9.48871
lclavicle 2.78299e-015 3.97569e-016
lhumerus -42.0778 1.39153 85.4603
lradius 80.1225
lwrist 26.8231
lhand -10.2046 9.26647
lfingers 7.12502
lthumb 15.7866 38.6427
rfemur -26.4585 -1.50716 17.6735
rtibia 58.8557
rfoot 5.42845 -3.27436
rtoes 2.36318
lfemur -25.2116 2.9907 -23.7938
ltibia 46.3089
lfoot 20.001 -15.8772
ltoes -16.6897
849
root -1.6545 18.796 0.437505 2.12203 -0.523844 3.07888
lowerback 10.6531 1.18587 -2.05721
upperback 1.75116 1.34878 0.217116
thorax -4.1975 0.69688 1.1945
lowerneck -26.8396 -4.21602 -11.0221
upperneck 20.861 -4.40464 10.7858
head 11.7664 -1.46254 5.12207
rclavicle 9.64106e-015 -1.47101e-014
rhumerus -46.4142 12.4156 -83.8605
rradius 108.375
rwrist -2.00558
rhand -19.5874 20.6323
rfingers 7.12502
rthumb 6.73814 -9.24053
lclavicle 9.64106e-015 -1.47101e-014
lhumerus -42.4657 1.04343 85.5553
lradius 77.9477
lwrist 26.975
lhand -10.286 8.89806
lfingers 7.12502
lthumb 15.7082 38.2805
rfemur -28.2894 -1.53919 17.1429
rtibia 62.5227
rfoot 4.29553 -3.59702
rtoes 3.97511
lfemur -23.1287 2.25321 -24.2732
ltibia 43.7881
lfoot 19.9635 -15.6494
ltoes -18.0025
850
root -1.63453 18.7505 0.435071 1.81442 -1.22681 3.51423
lowerback 10.91 1.07322 -2.50333
upperback 1.81388 1.14271 0.239783
thorax -4.27573 0.601433 1.49567
lowerneck -26.7871 -4.13082 -10.8934
upperneck 21.0695 -4.34415 10.7332
head 11.8239 -1.43404 5.09825
rclavicle 1.93815e-014 -2.78299e-015
rhumerus -45.8373 12.9645 -83.9002
rradius 109.539
rwrist -1.94456
rhand -19.7285 20.3173
rfingers 7.12502
rthumb 6.60197 -9.5598
lclavicle 1.93815e-014 -2.78299e-015
lhumerus -42.7329 0.605376 85.7283
lradius 75.8825
lwrist 26.7761
lhand -10.5974 8.80987
lfingers 7.12502
lthumb 15.4083 38.2156
rfemur -29.9715 -1.58342 16.3517
rtibia 66.139
rfoot 3.61533 -3.61267
rtoes 5.48446
lfemur -20.8922 1.58415 -25.0143
ltibia 41.376
lfoot 18.7948 -15.2166
ltoes -21.3496
851
root -1.61308 18.6971 0.436981 1.38963 -1.9167 3.93433
lowerback 11.2431 0.957433 -2.9535
upperback 1.87374 0.92892 0.29939
thorax -4.39581 0.503261 1.83969
lowerneck -26.6858 -4.03821 -10.9309
upperneck 21.171 -4.25679 10.8735
head 11.8376 -1.38315 5.17883
rclavicle 1.799e-014 -4.77083e-015
rhumerus -45.371 13.5169 -83.877
rradius 110.948
rwrist -1.82921
rhand -19.9057 19.9609
rfingers 7.12502
rthumb 6.43083 -9.92147
lclavicle 1.799e-014 -4.77083e-015
lhumerus -43.1298 0.146243 85.9745
lradius 74.0909
lwrist 26.3836
lhand -10.0267 8.42446
lfingers 7.12502
lthumb 15.958 37.7871
rfemur -31.4376 -1.66922 15.5526
rtibia 69.635
rfoot 3.01616 -3.33203
rtoes 5.61737
lfemur -18.5024 1.04342 -25.8043
ltibia 39.1238
lfoot 16.6734 -14.243
ltoes -24.2193
